<svg width="22" height="26" viewBox="0 0 22 26" fill="none" xmlns="http://www.w3.org/2000/svg">
<g clip-path="url(#clip0_566_51731)">
<path fill-rule="evenodd" clip-rule="evenodd" d="M7.05033 5.05025C8.36309 3.7375 10.1436 3 12.0001 3C13.8566 3 15.6371 3.7375 16.9498 5.05025C18.2626 6.36301 19.0001 8.14349 19.0001 10C19.0001 13.3527 19.7171 15.4346 20.378 16.6461C20.7098 17.2544 21.0329 17.6535 21.2573 17.8904C21.3698 18.0091 21.4581 18.0878 21.5114 18.1322C21.538 18.1544 21.5558 18.168 21.5635 18.1737C21.5647 18.1746 21.5657 18.1753 21.5664 18.1758C21.9249 18.4221 22.0835 18.8725 21.9572 19.2898C21.8295 19.7115 21.4407 20 21.0001 20H3.00008C2.55941 20 2.17068 19.7115 2.04299 19.2898C1.91664 18.8725 2.07528 18.4221 2.43377 18.1758C2.43447 18.1753 2.43542 18.1746 2.43663 18.1737C2.44432 18.168 2.46218 18.1544 2.4888 18.1322C2.54202 18.0878 2.6304 18.0091 2.74288 17.8904C2.9673 17.6535 3.29039 17.2544 3.62218 16.6461C4.28301 15.4346 5.00008 13.3527 5.00008 10C5.00008 8.14348 5.73758 6.36301 7.05033 5.05025ZM2.44388 18.169C2.44395 18.1689 2.44403 18.1688 2.44411 18.1688C2.44411 18.1688 2.4441 18.1688 2.4441 18.1688L2.44388 18.169ZM5.1494 18H18.8508C18.7747 17.8753 18.6983 17.7434 18.6222 17.6039C17.783 16.0654 17.0001 13.6473 17.0001 10C17.0001 8.67392 16.4733 7.40215 15.5356 6.46447C14.5979 5.52678 13.3262 5 12.0001 5C10.674 5 9.40223 5.52678 8.46454 6.46447C7.52686 7.40215 7.00008 8.67392 7.00008 10C7.00008 13.6473 6.21715 16.0654 5.37797 17.6039C5.30188 17.7434 5.22549 17.8753 5.1494 18Z" fill="#758A8F"/>
<path fill-rule="evenodd" clip-rule="evenodd" d="M9.76792 22.135C10.2457 21.8579 10.8576 22.0205 11.1347 22.4982C11.2226 22.6497 11.3488 22.7755 11.5006 22.863C11.6524 22.9504 11.8245 22.9964 11.9997 22.9964C12.1749 22.9964 12.347 22.9504 12.4988 22.863C12.6506 22.7755 12.7768 22.6497 12.8647 22.4982C13.1418 22.0205 13.7537 21.8579 14.2315 22.135C14.7092 22.4121 14.8718 23.024 14.5947 23.5018C14.331 23.9564 13.9525 24.3337 13.497 24.596C13.0416 24.8584 12.5253 24.9964 11.9997 24.9964C11.4741 24.9964 10.9578 24.8584 10.5024 24.596C10.0469 24.3337 9.66841 23.9564 9.4047 23.5018C9.12758 23.024 9.2902 22.4121 9.76792 22.135Z" fill="#758A8F"/>
</g>
<path d="M9.33598 4C9.33598 5.93746 7.78136 7.5 5.87356 7.5C3.96575 7.5 2.41113 5.93746 2.41113 4C2.41113 2.06254 3.96575 0.5 5.87356 0.5C7.78136 0.5 9.33598 2.06254 9.33598 4Z" fill="#DC3545" stroke="white"/>
<defs>
<clipPath id="clip0_566_51731">
<rect width="22" height="26" fill="white"/>
</clipPath>
</defs>
</svg>
