<svg width="28" height="28" viewBox="0 0 28 28" fill="none" xmlns="http://www.w3.org/2000/svg">
<path d="M4.375 7.875H8.21188C8.16922 7.83891 8.12547 7.80391 8.08391 7.76563C7.75172 7.47051 7.48401 7.11002 7.2975 6.70671C7.111 6.30341 7.00972 5.86596 7 5.42172C6.98563 4.93574 7.07074 4.45195 7.25011 4.00005C7.42948 3.54815 7.69931 3.13768 8.04305 2.79384C8.3868 2.45 8.79718 2.18004 9.24903 2.00054C9.70087 1.82103 10.1846 1.73578 10.6706 1.75C11.115 1.75957 11.5527 1.86078 11.9562 2.04729C12.3597 2.2338 12.7204 2.50159 13.0156 2.83391C13.4242 3.30739 13.7563 3.84173 14 4.41766C14.2437 3.84173 14.5758 3.30739 14.9844 2.83391C15.2796 2.50159 15.6403 2.2338 16.0438 2.04729C16.4473 1.86078 16.885 1.75957 17.3294 1.75C17.8154 1.73578 18.2991 1.82103 18.751 2.00054C19.2028 2.18004 19.6132 2.45 19.9569 2.79384C20.3007 3.13768 20.5705 3.54815 20.7499 4.00005C20.9293 4.45195 21.0144 4.93574 21 5.42172C20.9903 5.86596 20.889 6.30341 20.7025 6.70671C20.516 7.11002 20.2483 7.47051 19.9161 7.76563C19.8745 7.80172 19.8308 7.83672 19.7881 7.875H23.625C24.0891 7.875 24.5342 8.05938 24.8624 8.38756C25.1906 8.71575 25.375 9.16087 25.375 9.625V13.125C25.375 13.5891 25.1906 14.0342 24.8624 14.3624C24.5342 14.6906 24.0891 14.875 23.625 14.875V21.875C23.625 22.3391 23.4406 22.7842 23.1124 23.1124C22.7842 23.4406 22.3391 23.625 21.875 23.625H15.3125C15.1965 23.625 15.0852 23.5789 15.0031 23.4969C14.9211 23.4148 14.875 23.3035 14.875 23.1875V13.125H23.625V9.625H14.875V13.125H13.125V9.625H4.375V13.125H13.125V23.1875C13.125 23.3035 13.0789 23.4148 12.9969 23.4969C12.9148 23.5789 12.8035 23.625 12.6875 23.625H6.125C5.66087 23.625 5.21575 23.4406 4.88756 23.1124C4.55938 22.7842 4.375 22.3391 4.375 21.875V14.875C3.91087 14.875 3.46575 14.6906 3.13756 14.3624C2.80938 14.0342 2.625 13.5891 2.625 13.125V9.625C2.625 9.16087 2.80938 8.71575 3.13756 8.38756C3.46575 8.05938 3.91087 7.875 4.375 7.875ZM18.7567 6.45313C18.9097 6.31458 19.0324 6.14591 19.1171 5.95768C19.2018 5.76946 19.2467 5.56576 19.2489 5.35938C19.2544 5.11755 19.2116 4.87705 19.123 4.65198C19.0344 4.4269 18.9018 4.22177 18.7329 4.0486C18.564 3.87543 18.3623 3.73771 18.1395 3.64351C17.9167 3.54931 17.6774 3.50052 17.4355 3.5H17.3819C17.1755 3.50223 16.9718 3.5471 16.7836 3.6318C16.5953 3.7165 16.4267 3.8392 16.2881 3.99219C15.3705 5.02906 15.0467 6.74844 14.933 7.81156C16.0005 7.69891 17.7188 7.37516 18.7567 6.45313ZM9.24109 6.45313C10.2791 7.37188 12.0017 7.69563 13.0692 7.80938C12.9391 6.65984 12.5781 4.97656 11.7031 3.99328C11.5646 3.84029 11.3959 3.71759 11.2077 3.63289C11.0195 3.54819 10.8158 3.50332 10.6094 3.50109H10.5558C10.3139 3.50261 10.0747 3.55239 9.85229 3.64752C9.62988 3.74265 9.42868 3.88121 9.2605 4.0551C9.09233 4.22898 8.96054 4.43468 8.87288 4.66015C8.78522 4.88561 8.74345 5.12631 8.75 5.36813C8.75356 5.57311 8.79918 5.77519 8.88403 5.96182C8.96889 6.14846 9.09116 6.31568 9.24328 6.45313H9.24109Z" fill="#637381"/>
</svg>
