<svg width="28" height="28" viewBox="0 0 28 28" fill="none" xmlns="http://www.w3.org/2000/svg">
<path d="M13.6958 5.53877C13.7773 5.46089 13.8856 5.41742 13.9983 5.41742C14.1109 5.41742 14.2193 5.46089 14.3007 5.53877L24.3687 15.1567C24.4114 15.1976 24.4454 15.2467 24.4686 15.3011C24.4919 15.3556 24.5038 15.4141 24.5037 15.4733L24.5054 24.5C24.5054 24.9642 24.321 25.4093 23.9928 25.7375C23.6646 26.0657 23.2195 26.25 22.7554 26.25H17.4999C17.2678 26.25 17.0453 26.1578 16.8812 25.9937C16.7171 25.8297 16.6249 25.6071 16.6249 25.375V17.9375C16.6249 17.8215 16.5788 17.7102 16.4968 17.6282C16.4147 17.5461 16.3034 17.5 16.1874 17.5H11.8124C11.6964 17.5 11.5851 17.5461 11.503 17.6282C11.421 17.7102 11.3749 17.8215 11.3749 17.9375V25.375C11.3749 25.6071 11.2827 25.8297 11.1186 25.9937C10.9545 26.1578 10.732 26.25 10.4999 26.25H5.24662C4.78249 26.25 4.33737 26.0657 4.00918 25.7375C3.681 25.4093 3.49662 24.9642 3.49662 24.5V15.4733C3.49655 15.4141 3.50849 15.3556 3.53171 15.3011C3.55492 15.2467 3.58894 15.1976 3.6317 15.1567L13.6958 5.53877Z" fill="#09D7C9"/>
<path d="M1.15334 13.352L5.24397 9.43852V3.5C5.24397 3.26794 5.33615 3.04538 5.50025 2.88128C5.66434 2.71719 5.8869 2.625 6.11897 2.625H8.74397C8.97603 2.625 9.19859 2.71719 9.36268 2.88128C9.52678 3.04538 9.61897 3.26794 9.61897 3.5V5.25L12.7865 2.22141C13.0829 1.92172 13.5237 1.75 14 1.75C14.4747 1.75 14.9144 1.92172 15.2108 2.22195L26.8428 13.3509C27.1829 13.679 27.2256 14.2188 26.9161 14.5742C26.8383 14.6639 26.7432 14.7369 26.6363 14.7887C26.5295 14.8405 26.4133 14.87 26.2947 14.8754C26.1761 14.8808 26.0577 14.862 25.9465 14.8202C25.8354 14.7784 25.734 14.7144 25.6484 14.6322L14.3008 3.78875C14.2193 3.71086 14.111 3.66739 13.9983 3.66739C13.8857 3.66739 13.7773 3.71086 13.6959 3.78875L2.34717 14.6322C2.17999 14.7925 1.95608 14.88 1.7245 14.8755C1.49292 14.871 1.27258 14.7748 1.11178 14.6081C0.775995 14.2603 0.803886 13.6861 1.15334 13.352Z" fill="#09D7C9"/>
</svg>
