<svg width="28" height="28" viewBox="0 0 28 28" fill="none" xmlns="http://www.w3.org/2000/svg">
<path d="M4.45064 8.39721C4.16399 8.16211 3.79614 8.04964 3.42704 8.08424C3.05793 8.11885 2.71739 8.29773 2.47944 8.58201L0.691638 10.7366C0.456454 11.0229 0.343783 11.3904 0.378127 11.7592C0.412471 12.1281 0.591053 12.4685 0.875038 12.7064L11.9182 21.8652L6.58844 10.1696L4.45064 8.39721ZM9.81824 3.75621L7.27024 4.91681C6.93394 5.0723 6.67255 5.35416 6.5428 5.7012C6.41306 6.04823 6.42543 6.43244 6.57724 6.77041L12.5272 19.8254L12.8254 6.97481L11.6746 4.44921C11.3526 3.74921 10.5182 3.43701 9.81824 3.75621ZM19.8954 4.04181C19.903 3.67104 19.7635 3.31233 19.5075 3.04401C19.2515 2.77568 18.8998 2.61952 18.529 2.60961L15.729 2.54521C15.3585 2.53806 15.0002 2.67768 14.7321 2.93364C14.4641 3.1896 14.3081 3.54114 14.2982 3.91161L13.9636 18.2518L19.8296 6.81801L19.8954 4.04181ZM26.8674 5.37181L24.3768 4.09361C24.0459 3.92575 23.6621 3.89542 23.3089 4.00921C22.9557 4.12301 22.6617 4.37173 22.491 4.70121L13.5436 22.1396C13.3754 22.4705 13.3449 22.8545 13.4587 23.2078C13.5725 23.5611 13.8215 23.855 14.1512 24.0254L16.6418 25.3036C16.9723 25.4719 17.356 25.5026 17.709 25.389C18.0621 25.2755 18.3559 25.0268 18.5262 24.6974L27.4736 7.25901C27.642 6.92811 27.6728 6.54405 27.5593 6.19055C27.4457 5.83704 27.197 5.54275 26.8674 5.37181ZM17.9186 22.8102C17.8372 22.9777 17.7231 23.1273 17.5832 23.2502C17.4432 23.3731 17.2801 23.4668 17.1034 23.5258C16.9268 23.5849 16.7401 23.6081 16.5544 23.5941C16.3686 23.5801 16.1875 23.5292 16.0217 23.4443C15.8559 23.3594 15.7087 23.2424 15.5887 23.0999C15.4687 22.9574 15.3784 22.7924 15.323 22.6146C15.2676 22.4368 15.2482 22.2497 15.266 22.0643C15.2838 21.8788 15.3384 21.6989 15.4266 21.5348C15.6002 21.2122 15.8933 20.9705 16.243 20.8615C16.5928 20.7525 16.9713 20.7849 17.2974 20.9518C17.6235 21.1187 17.8712 21.4068 17.9874 21.7542C18.1035 22.1016 18.0788 22.4808 17.9186 22.8102Z" fill="#637381"/>
</svg>
