<svg width="8" height="13" viewBox="0 0 8 13" fill="none" xmlns="http://www.w3.org/2000/svg">
<path d="M0.295922 6.7158L5.29592 11.7158C5.38916 11.809 5.49985 11.883 5.62167 11.9335C5.74349 11.9839 5.87406 12.0099 6.00592 12.0099C6.27222 12.0099 6.52762 11.9041 6.71592 11.7158C6.80916 11.6226 6.88312 11.5119 6.93358 11.39C6.98404 11.2682 7.01001 11.1377 7.01001 11.0058C7.01001 10.7395 6.90422 10.4841 6.71592 10.2958L2.41592 6.0058L6.71592 1.7158C6.80965 1.62283 6.88404 1.51223 6.93481 1.39037C6.98558 1.26851 7.01172 1.13781 7.01172 1.0058C7.01172 0.873785 6.98558 0.743079 6.93481 0.62122C6.88404 0.49936 6.80965 0.388761 6.71592 0.295797C6.62296 0.202069 6.51236 0.127673 6.3905 0.0769042C6.26864 0.0261354 6.13793 -1.98374e-06 6.00592 -1.99528e-06C5.87391 -2.00682e-06 5.7432 0.0261353 5.62134 0.0769042C5.49949 0.127673 5.38888 0.202069 5.29592 0.295797L0.295922 5.2958C0.202193 5.38876 0.127798 5.49936 0.0770288 5.62122C0.02626 5.74308 0.000122607 5.87378 0.000122595 6.0058C0.000122584 6.13781 0.0262599 6.26851 0.0770288 6.39037C0.127798 6.51223 0.202193 6.62283 0.295922 6.7158Z" fill="#637381"/>
</svg>
