<svg width="304" height="138" viewBox="0 0 304 138" fill="none" xmlns="http://www.w3.org/2000/svg">
<path fill-rule="evenodd" clip-rule="evenodd" d="M12.4433 31.7721C9.07963 28.5663 5.65558 26.9275 2.04155 27.0025L0 27V23.043L1.95855 23.0034C6.96953 22.8994 11.363 25.2169 15.2029 28.8765C19.0259 32.5201 22.4387 37.6182 25.5651 43.4248C30.5779 52.7347 35.0438 64.2434 39.3114 75.2409C40.358 77.9378 41.3926 80.604 42.4204 83.1995C45.0469 89.8319 47.6308 96.013 50.2773 101.181C52.9422 106.384 55.5803 110.375 58.2487 112.772C60.8412 115.101 63.2239 115.746 65.7273 114.872C68.4779 113.912 71.843 110.977 75.8208 104.828C79.5943 98.9948 82.6507 93.2433 85.5295 87.7483C85.7234 87.3781 85.9166 87.0089 86.1093 86.6407C88.762 81.572 91.3107 76.7018 94.1379 72.3192C100.267 62.8174 107.828 55.4175 121.057 52.4099C130.214 50.3279 138.293 56.6245 145.414 65.0135C150.704 71.2455 155.888 79.1546 160.992 86.9419C162.848 89.7735 164.694 92.5889 166.53 95.3018C170.006 100.437 173.464 105.236 176.959 109.229C180.465 113.236 183.919 116.327 187.358 118.15C190.747 119.946 194.065 120.488 197.47 119.512C200.936 118.517 204.763 115.872 208.95 110.736C217.833 99.844 226.216 95.5866 234.522 95.9666C242.649 96.3384 250.117 101.155 257.198 106.901C260.062 109.225 262.933 111.763 265.8 114.297C266.504 114.919 267.207 115.54 267.91 116.159C271.498 119.314 275.094 122.397 278.784 125.101C286.185 130.523 293.727 134.237 301.94 133.988L304 134V138L302.061 137.986C292.523 138.275 284.086 133.944 276.42 128.327C272.576 125.511 268.866 122.326 265.268 119.162C264.548 118.528 263.832 117.896 263.121 117.268C260.261 114.74 257.469 112.273 254.678 110.008C247.655 104.309 241.07 100.27 234.339 99.9624C227.785 99.6626 220.501 102.901 212.05 113.264C207.571 118.757 203.106 122.056 198.573 123.357C193.978 124.674 189.591 123.861 185.484 121.684C181.428 119.533 177.598 116.033 173.949 111.864C170.289 107.682 166.721 102.72 163.217 97.5438C161.295 94.7043 159.397 91.8083 157.51 88.9301C152.454 81.2161 147.481 73.63 142.364 67.602C135.246 59.2158 128.618 54.793 121.943 56.3104C110.042 59.0163 103.259 65.5582 97.4992 74.4875C94.7749 78.7107 92.3072 83.4252 89.6299 88.5403C89.4452 88.8931 89.2595 89.2479 89.0727 89.6045C86.1925 95.1022 83.0621 100.998 79.1793 107.001C75.0727 113.349 71.0932 117.236 67.0457 118.649C62.751 120.148 58.882 118.718 55.5758 115.748C52.3457 112.847 49.4381 108.317 46.717 103.004C43.9775 97.6547 41.3351 91.3227 38.7014 84.6722C37.6465 82.0083 36.5932 79.2946 35.5345 76.5673C31.2732 65.5892 26.9259 54.3895 22.0432 45.3211C19.0007 39.6704 15.8238 34.994 12.4433 31.7721Z" fill="#11EAA3"/>
<g filter="url(#filter0_d_687_53724)">
<rect x="90" y="11" width="72" height="33" rx="4" fill="white"/>
<path d="M113.331 31.2191C113.552 30.845 113.871 30.535 114.256 30.3208C114.641 30.1065 115.078 29.9959 115.521 30.0001L133.48 30.0001C133.923 29.9959 134.36 30.1065 134.745 30.3208C135.13 30.535 135.449 30.845 135.67 31.2191C135.886 31.579 136 31.9883 136 32.4051C136 32.8219 135.886 33.2312 135.67 33.5911L126.693 48.7779C126.468 49.15 126.148 49.4585 125.764 49.6729C125.379 49.8872 124.944 50 124.501 50C124.057 50 123.622 49.8872 123.238 49.6729C122.853 49.4585 122.533 49.15 122.308 48.7779L113.329 33.5911C113.113 33.231 113 32.8216 113 32.4048C113 31.988 113.114 31.5788 113.331 31.2191Z" fill="white"/>
<path d="M112.766 33.61V32.07C112.141 32.0327 111.553 31.9207 111.002 31.734C110.451 31.538 109.971 31.2673 109.56 30.922L110.036 29.774C110.484 30.1287 110.96 30.3947 111.464 30.572C111.977 30.7493 112.556 30.838 113.2 30.838C113.937 30.838 114.483 30.698 114.838 30.418C115.202 30.138 115.384 29.7787 115.384 29.34C115.384 28.9667 115.258 28.6727 115.006 28.458C114.754 28.234 114.329 28.0567 113.732 27.926L112.29 27.618C111.45 27.4313 110.82 27.128 110.4 26.708C109.98 26.2787 109.77 25.7093 109.77 25C109.77 24.468 109.891 23.9967 110.134 23.586C110.386 23.1753 110.736 22.8393 111.184 22.578C111.632 22.3167 112.159 22.1533 112.766 22.088V20.52H113.914V22.088C114.399 22.1347 114.871 22.256 115.328 22.452C115.795 22.6387 116.196 22.9 116.532 23.236L116.07 24.342C115.706 23.9873 115.295 23.726 114.838 23.558C114.381 23.3807 113.877 23.292 113.326 23.292C112.682 23.292 112.164 23.446 111.772 23.754C111.389 24.062 111.198 24.4633 111.198 24.958C111.198 25.3407 111.319 25.644 111.562 25.868C111.805 26.092 112.192 26.2647 112.724 26.386L114.166 26.694C115.062 26.8807 115.729 27.184 116.168 27.604C116.607 28.0147 116.826 28.5607 116.826 29.242C116.826 30.0167 116.555 30.6513 116.014 31.146C115.473 31.6313 114.773 31.9253 113.914 32.028V33.61H112.766ZM120.881 32.126C120.367 32.126 119.854 32.0233 119.341 31.818C118.837 31.6127 118.407 31.3327 118.053 30.978L118.557 29.872C118.902 30.208 119.275 30.4647 119.677 30.642C120.078 30.81 120.484 30.894 120.895 30.894C121.772 30.894 122.439 30.5813 122.897 29.956C123.363 29.3213 123.597 28.3787 123.597 27.128V26.554C123.41 27.1233 123.083 27.5713 122.617 27.898C122.159 28.2247 121.623 28.388 121.007 28.388C120.437 28.388 119.929 28.2527 119.481 27.982C119.033 27.7113 118.683 27.3427 118.431 26.876C118.179 26.4 118.053 25.8587 118.053 25.252C118.053 24.6173 118.188 24.0573 118.459 23.572C118.729 23.0773 119.103 22.6947 119.579 22.424C120.064 22.144 120.619 22.004 121.245 22.004C122.439 22.004 123.359 22.4287 124.003 23.278C124.656 24.1273 124.983 25.3173 124.983 26.848C124.983 28.5373 124.619 29.8393 123.891 30.754C123.172 31.6687 122.169 32.126 120.881 32.126ZM121.343 27.198C121.912 27.198 122.374 27.016 122.729 26.652C123.083 26.2787 123.261 25.7933 123.261 25.196C123.261 24.5987 123.083 24.1133 122.729 23.74C122.374 23.3573 121.912 23.166 121.343 23.166C120.773 23.166 120.311 23.3573 119.957 23.74C119.602 24.1133 119.425 24.5987 119.425 25.196C119.425 25.7933 119.602 26.2787 119.957 26.652C120.311 27.016 120.773 27.198 121.343 27.198ZM130.143 32.126C129.508 32.126 128.892 32.028 128.295 31.832C127.707 31.6267 127.217 31.342 126.825 30.978L127.315 29.858C128.174 30.5487 129.107 30.894 130.115 30.894C130.759 30.894 131.263 30.7213 131.627 30.376C131.991 30.0213 132.173 29.5593 132.173 28.99C132.173 28.402 132 27.9213 131.655 27.548C131.31 27.1747 130.829 26.988 130.213 26.988C129.345 26.988 128.65 27.3473 128.127 28.066H127.119V22.13H132.999V23.348H128.533V26.47C129.056 26.0127 129.718 25.784 130.521 25.784C131.146 25.784 131.688 25.9147 132.145 26.176C132.602 26.4373 132.957 26.806 133.209 27.282C133.461 27.7487 133.587 28.2947 133.587 28.92C133.587 29.5547 133.447 30.1147 133.167 30.6C132.887 31.076 132.49 31.4493 131.977 31.72C131.464 31.9907 130.852 32.126 130.143 32.126ZM138.384 32.126C137.254 32.126 136.372 31.8833 135.738 31.398C135.112 30.9127 134.8 30.236 134.8 29.368C134.8 28.7613 134.958 28.248 135.276 27.828C135.602 27.3987 136.027 27.1047 136.55 26.946C136.083 26.75 135.714 26.4513 135.444 26.05C135.173 25.6393 135.038 25.168 135.038 24.636C135.038 23.8147 135.341 23.1707 135.948 22.704C136.554 22.2373 137.366 22.004 138.384 22.004C139.41 22.004 140.227 22.2373 140.834 22.704C141.44 23.1707 141.744 23.8147 141.744 24.636C141.744 25.168 141.604 25.6393 141.324 26.05C141.053 26.4607 140.684 26.7593 140.218 26.946C140.75 27.1047 141.174 27.3987 141.492 27.828C141.809 28.248 141.968 28.7613 141.968 29.368C141.968 30.236 141.65 30.9127 141.016 31.398C140.39 31.8833 139.513 32.126 138.384 32.126ZM138.384 26.428C139.009 26.428 139.494 26.2833 139.84 25.994C140.194 25.6953 140.372 25.2893 140.372 24.776C140.372 24.272 140.194 23.8753 139.84 23.586C139.494 23.2967 139.009 23.152 138.384 23.152C137.758 23.152 137.273 23.2967 136.928 23.586C136.582 23.8753 136.41 24.272 136.41 24.776C136.41 25.2893 136.582 25.6953 136.928 25.994C137.273 26.2833 137.758 26.428 138.384 26.428ZM138.384 30.978C139.868 30.978 140.61 30.4087 140.61 29.27C140.61 28.1407 139.868 27.576 138.384 27.576C137.656 27.576 137.1 27.716 136.718 27.996C136.344 28.276 136.158 28.7007 136.158 29.27C136.158 30.4087 136.9 30.978 138.384 30.978Z" fill="#637381"/>
</g>
<circle cx="125" cy="60" r="2.5" fill="#11E8A2" stroke="#EDF6FE"/>
<defs>
<filter id="filter0_d_687_53724" x="78" y="0" width="96" height="63" filterUnits="userSpaceOnUse" color-interpolation-filters="sRGB">
<feFlood flood-opacity="0" result="BackgroundImageFix"/>
<feColorMatrix in="SourceAlpha" type="matrix" values="0 0 0 0 0 0 0 0 0 0 0 0 0 0 0 0 0 0 127 0" result="hardAlpha"/>
<feOffset dy="1"/>
<feGaussianBlur stdDeviation="6"/>
<feComposite in2="hardAlpha" operator="out"/>
<feColorMatrix type="matrix" values="0 0 0 0 0 0 0 0 0 0 0 0 0 0 0 0 0 0 0.12 0"/>
<feBlend mode="normal" in2="BackgroundImageFix" result="effect1_dropShadow_687_53724"/>
<feBlend mode="normal" in="SourceGraphic" in2="effect1_dropShadow_687_53724" result="shape"/>
</filter>
</defs>
</svg>
