<svg width="20" height="24" viewBox="0 0 20 24" fill="none" xmlns="http://www.w3.org/2000/svg">
<path fill-rule="evenodd" clip-rule="evenodd" d="M2.80469 5.25C2.80469 4.83579 3.14047 4.5 3.55469 4.5H8.80469C9.2189 4.5 9.55469 4.83579 9.55469 5.25V10.5C9.55469 10.9142 9.2189 11.25 8.80469 11.25H3.55469C3.14047 11.25 2.80469 10.9142 2.80469 10.5V5.25ZM4.30469 6V9.75H8.05469V6H4.30469Z" fill="#758A8F"/>
<path fill-rule="evenodd" clip-rule="evenodd" d="M11.0547 5.25C11.0547 4.83579 11.3905 4.5 11.8047 4.5H17.0547C17.4689 4.5 17.8047 4.83579 17.8047 5.25V10.5C17.8047 10.9142 17.4689 11.25 17.0547 11.25H11.8047C11.3905 11.25 11.0547 10.9142 11.0547 10.5V5.25ZM12.5547 6V9.75H16.3047V6H12.5547Z" fill="#758A8F"/>
<path fill-rule="evenodd" clip-rule="evenodd" d="M11.0547 13.5C11.0547 13.0858 11.3905 12.75 11.8047 12.75H17.0547C17.4689 12.75 17.8047 13.0858 17.8047 13.5V18.75C17.8047 19.1642 17.4689 19.5 17.0547 19.5H11.8047C11.3905 19.5 11.0547 19.1642 11.0547 18.75V13.5ZM12.5547 14.25V18H16.3047V14.25H12.5547Z" fill="#758A8F"/>
<path fill-rule="evenodd" clip-rule="evenodd" d="M2.80469 13.5C2.80469 13.0858 3.14047 12.75 3.55469 12.75H8.80469C9.2189 12.75 9.55469 13.0858 9.55469 13.5V18.75C9.55469 19.1642 9.2189 19.5 8.80469 19.5H3.55469C3.14047 19.5 2.80469 19.1642 2.80469 18.75V13.5ZM4.30469 14.25V18H8.05469V14.25H4.30469Z" fill="#758A8F"/>
</svg>
