<svg width="28" height="28" viewBox="0 0 28 28" fill="none" xmlns="http://www.w3.org/2000/svg">
<path d="M18.375 18.375H1.75C1.59725 18.3753 1.44707 18.3357 1.31441 18.26C1.18174 18.1843 1.07119 18.0752 0.993773 17.9435C0.916351 17.8118 0.874747 17.6622 0.873098 17.5095C0.871448 17.3567 0.909811 17.2062 0.984371 17.0729L9.29687 2.19789C9.37279 2.06192 9.48362 1.94868 9.61792 1.86984C9.75222 1.79101 9.90513 1.74945 10.0609 1.74945C10.2166 1.74945 10.3695 1.79101 10.5038 1.86984C10.6381 1.94868 10.7489 2.06192 10.8248 2.19789L19.1373 17.0729C19.2118 17.206 19.2501 17.3562 19.2486 17.5086C19.2471 17.6611 19.2058 17.8105 19.1288 17.9421C19.0517 18.0737 18.9417 18.1828 18.8094 18.2588C18.6772 18.3347 18.5275 18.3748 18.375 18.375Z" fill="#637381"/>
<path d="M18.375 8.75C17.7767 8.74987 17.1799 8.8107 16.5938 8.93156L20.6664 16.2198C20.8896 16.6193 21.0045 17.0702 20.9996 17.5278C20.9948 17.9854 20.8704 18.4337 20.6388 18.8284C20.4072 19.2231 20.0765 19.5504 19.6794 19.7779C19.2823 20.0053 18.8326 20.125 18.375 20.125H10.0259C10.511 21.6676 11.4142 23.0457 12.6351 24.1061C13.8559 25.1665 15.3468 25.8678 16.9422 26.1322C18.5375 26.3967 20.175 26.2138 21.6727 25.6039C23.1704 24.9941 24.4698 23.9811 25.4267 22.6774C26.3835 21.3738 26.9604 19.8305 27.0933 18.2188C27.2261 16.6072 26.9097 14.9902 26.1793 13.5475C25.4488 12.1048 24.3328 10.8927 22.9552 10.0458C21.5775 9.19894 19.9921 8.7504 18.375 8.75Z" fill="#637381"/>
</svg>
