<svg width="24" height="30" viewBox="0 0 24 30" fill="none" xmlns="http://www.w3.org/2000/svg">
<path d="M2.78829 29.8183C3.12175 29.818 3.45082 29.7425 3.751 29.5973C4.05131 29.4521 4.31502 29.2408 4.52255 28.9794C5.1647 28.2846 10.1277 23.4004 13.1689 20.4226C13.3794 20.2193 13.5476 19.9764 13.664 19.7076C13.7803 19.439 13.8425 19.1499 13.8469 18.857C13.8512 18.5641 13.7977 18.2733 13.6894 18.0012C13.5811 17.7291 13.4202 17.4812 13.2158 17.2717C13.0115 17.0623 12.7679 16.8954 12.4989 16.7806C12.2299 16.6659 11.9409 16.6057 11.6486 16.6033C11.3563 16.6009 11.0664 16.6566 10.7956 16.7669C10.5248 16.8774 10.2785 17.0403 10.0709 17.2465C10.0492 17.2678 7.85886 19.4128 5.68492 21.5554L5.00376 22.227V11.797C5.00376 7.7409 8.27033 4.44098 12.2857 4.44098C16.301 4.44098 19.5676 7.7409 19.5676 11.797V27.5976C19.5676 28.1865 19.8011 28.7513 20.2167 29.1677C20.6323 29.5841 21.196 29.818 21.7838 29.818C22.3716 29.818 22.9353 29.5841 23.3509 29.1677C23.7665 28.7513 24 28.1865 24 27.5976V11.797C24 5.29208 18.745 0 12.2857 0C5.82643 0 0.571357 5.29208 0.571357 11.797V27.5976C0.571623 28.1865 0.805245 28.7513 1.22097 29.1679C1.6367 29.5842 2.20045 29.8181 2.78829 29.8183Z" fill="url(#paint0_linear_566_51751)"/>
<path d="M12.2855 14.0223C10.8866 14.0223 9.75267 12.8861 9.75267 11.4846C9.75267 10.083 10.8866 8.94684 12.2855 8.94684C13.6844 8.94684 14.8184 10.083 14.8184 11.4846C14.8184 12.8861 13.6844 14.0223 12.2855 14.0223Z" fill="url(#paint1_linear_566_51751)"/>
<defs>
<linearGradient id="paint0_linear_566_51751" x1="12.2857" y1="30.1761" x2="12.2857" y2="0.0894536" gradientUnits="userSpaceOnUse">
<stop stop-color="#00C0F4"/>
<stop offset="1" stop-color="#12ECA0"/>
</linearGradient>
<linearGradient id="paint1_linear_566_51751" x1="12.2855" y1="30.2589" x2="12.2855" y2="0.176396" gradientUnits="userSpaceOnUse">
<stop stop-color="#00C0F4"/>
<stop offset="1" stop-color="#12ECA0"/>
</linearGradient>
</defs>
</svg>
