<svg width="26" height="28" viewBox="0 0 26 28" fill="none" xmlns="http://www.w3.org/2000/svg">
<path d="M13.1617 10.1878C14.0673 10.1878 14.9153 10.5508 15.5574 11.2142C16.1965 11.8777 16.5508 12.7539 16.5508 13.6896C16.5508 14.6253 16.1965 15.5015 15.5574 16.165C14.9153 16.8253 14.0673 17.1914 13.1617 17.1914C12.2562 17.1914 11.4081 16.8253 10.7661 16.165C10.127 15.5015 9.77266 14.6253 9.77266 13.6896C9.77266 12.7539 10.127 11.8777 10.7661 11.2142C11.0797 10.8877 11.4529 10.6288 11.8642 10.4526C12.2755 10.2764 12.7165 10.1864 13.1617 10.1878ZM0.674538 17.5575L2.65529 15.8082C2.5614 15.2136 2.51294 14.6065 2.51294 14.0025C2.51294 13.3986 2.5614 12.7883 2.65529 12.1969L0.674538 10.4475C0.524908 10.3152 0.417816 10.1389 0.367502 9.94213C0.317188 9.74536 0.326038 9.53743 0.392872 9.34598L0.420128 9.26461C0.96525 7.68955 1.78205 6.22957 2.83095 4.95542L2.88547 4.8897C3.01283 4.73496 3.18259 4.62372 3.37236 4.57065C3.56213 4.51758 3.76301 4.52516 3.94853 4.59241L6.40781 5.49681C7.31641 4.72697 8.32798 4.11987 9.42436 3.6974L9.89986 1.04053C9.93574 0.840378 10.0297 0.656245 10.1693 0.51259C10.3088 0.368936 10.4874 0.272561 10.6813 0.23627L10.763 0.220623C12.3379 -0.0735411 13.9977 -0.0735411 15.5726 0.220623L15.6543 0.23627C15.8482 0.272561 16.0268 0.368936 16.1663 0.51259C16.3059 0.656245 16.3999 0.840378 16.4357 1.04053L16.9143 3.70991C18.0003 4.13575 19.0119 4.74138 19.9096 5.50306L22.3871 4.59241C22.5725 4.52463 22.7736 4.51677 22.9634 4.56987C23.1533 4.62298 23.3231 4.73453 23.4501 4.8897L23.5046 4.95542C24.5517 6.23093 25.3683 7.69055 25.9155 9.26461L25.9427 9.34598C26.079 9.73715 25.967 10.1753 25.6611 10.4475L23.6561 12.2156C23.75 12.804 23.7954 13.4048 23.7954 13.9994C23.7954 14.6003 23.75 15.2011 23.6561 15.7832L25.655 17.5513C25.8046 17.6836 25.9117 17.8599 25.962 18.0567C26.0123 18.2535 26.0035 18.4614 25.9367 18.6528L25.9094 18.7342C25.3612 20.3083 24.5526 21.7635 23.4986 23.0434L23.4441 23.1091C23.3167 23.2639 23.1469 23.3751 22.9572 23.4282C22.7674 23.4812 22.5665 23.4736 22.381 23.4064L19.9036 22.4958C19.001 23.2625 17.9955 23.8696 16.9082 24.2889L16.4297 26.9583C16.3938 27.1584 16.2998 27.3426 16.1603 27.4862C16.0207 27.6299 15.8421 27.7263 15.6483 27.7625L15.5665 27.7782C13.9761 28.0739 12.3474 28.0739 10.757 27.7782L10.6752 27.7625C10.4814 27.7263 10.3028 27.6299 10.1632 27.4862C10.0236 27.3426 9.92968 27.1584 9.89381 26.9583L9.41831 24.3014C8.32193 23.8758 7.31035 23.2718 6.40175 22.502L3.94247 23.4064C3.75701 23.4742 3.55599 23.482 3.3661 23.4289C3.17622 23.3758 3.00647 23.2643 2.87941 23.1091L2.82489 23.0434C1.77092 21.7572 0.962259 20.3083 0.41407 18.7342L0.386814 18.6528C0.25658 18.2648 0.368643 17.8298 0.674538 17.5575ZM13.1617 19.1911C16.1026 19.1911 18.4861 16.7283 18.4861 13.6896C18.4861 10.6509 16.1026 8.1881 13.1617 8.1881C10.2209 8.1881 7.83734 10.6509 7.83734 13.6896C7.83734 16.7283 10.2209 19.1911 13.1617 19.1911Z" fill="#637381"/>
</svg>
